<svg xmlns="http://www.w3.org/2000/svg" width="192" height="192" viewBox="0 0 512 512" fill="none">
  <rect width="512" height="512" rx="128" fill="#0EA5E9"/>
  <path d="M128 192C128 174.327 142.327 160 160 160H352C369.673 160 384 174.327 384 192V320C384 337.673 369.673 352 352 352H160C142.327 352 128 337.673 128 320V192Z" fill="white"/>
  <path d="M176 224C176 215.163 183.163 208 192 208H240C248.837 208 256 215.163 256 224V288C256 296.837 248.837 304 240 304H192C183.163 304 176 296.837 176 288V224Z" fill="#0EA5E9"/>
  <path d="M288 224C288 215.163 295.163 208 304 208H320C328.837 208 336 215.163 336 224V240C336 248.837 328.837 256 320 256H304C295.163 256 288 248.837 288 240V224Z" fill="#0EA5E9"/>
  <path d="M288 272C288 263.163 295.163 256 304 256H320C328.837 256 336 263.163 336 272V288C336 296.837 328.837 304 320 304H304C295.163 304 288 296.837 288 288V272Z" fill="#0EA5E9"/>
</svg>